<?xml version="1.0" encoding="UTF-8" standalone="no"?><!DOCTYPE svg PUBLIC "-//W3C//DTD SVG 1.1//EN" "http://www.w3.org/Graphics/SVG/1.1/DTD/svg11.dtd"><svg width="100%" height="100%" viewBox="0 0 1521 2334" version="1.1" xmlns="http://www.w3.org/2000/svg" xmlns:xlink="http://www.w3.org/1999/xlink" xml:space="preserve" xmlns:serif="http://www.serif.com/" style="fill-rule:evenodd;clip-rule:evenodd;stroke-linejoin:round;stroke-miterlimit:2;"><g><path d="M762.083,2298.75c0,0.417 0.833,1.25 0.833,1.25c0,0 730,-1120.833 730,-1489.167c0,-542.083 -370,-777.917 -730.833,-778.75c-360.833,0.833 -730.833,236.667 -730.833,778.75c0,368.333 730.417,1489.167 730.417,1489.167l0.417,-1.25Zm-252.917,-1518.75c0,-140 113.333,-253.333 253.333,-253.333c140,0 253.333,113.333 253.333,253.333c0,140 -113.75,253.333 -253.75,253.333c-139.583,0 -252.917,-113.333 -252.917,-253.333Z" style="fill-rule:nonzero;"/><rect x="450.521" y="282.552" width="598.524" height="883.49"/><path d="M333.462,459.974c-21.308,23.686 -34.081,53.555 -34.081,86.108c0,76.749 70.618,138.98 157.711,138.98c51.377,0 96.891,-21.727 125.659,-55.255l-59.332,-21.665c-17.335,14.416 -40.642,23.317 -66.358,23.317c-53.507,0 -96.86,-38.231 -96.86,-85.377c0,-12.655 3.214,-24.614 8.83,-35.392l71.299,-11.679l-106.868,-39.037Zm479.901,124.196c-70.734,123.779 -208.817,225.907 -386.782,292.868c206.679,77.132 372.608,339.789 386.782,596.781c14.252,-256.992 180.088,-519.649 386.821,-596.781c-174.898,48.327 -315.483,138.973 -386.821,249.415l0,-542.283Z" style="fill:#fff;fill-rule:nonzero;"/></g></svg>