<svg class="svg-icon" style="width: 1em; height: 1em;vertical-align: middle;fill: currentColor;overflow: hidden;" viewBox="0 0 1024 1024" version="1.1" xmlns="http://www.w3.org/2000/svg"><path d="M292.574609 1024C268.688696 1024 247.251478 1005.679304 244.869565 982.79513L178.086957 222.608696h667.826086l-66.782608 760.186434C776.748522 1005.679304 755.289043 1024 731.425391 1024H292.574609zM512 445.217391a133.565217 133.565217 0 1 0 0 267.130435 133.565217 133.565217 0 0 0 0-267.130435zM133.565217 133.565217a44.521739 44.521739 0 0 1 44.52174-44.521739h22.260869l32.211478-64.422956A44.521739 44.521739 0 0 1 272.406261 0h479.209739a44.521739 44.521739 0 0 1 39.824696 24.620522L823.652174 89.043478h22.260869a44.521739 44.521739 0 0 1 0 89.043479H178.086957a44.521739 44.521739 0 0 1-44.52174-44.52174z" fill="#000000" /></svg>