<svg class="svg-icon" style="width: 1em; height: 1em;vertical-align: middle;fill: currentColor;overflow: hidden;" viewBox="0 0 1024 1024" version="1.1" xmlns="http://www.w3.org/2000/svg"><path d="M661.333333 896L597.333333 341.333333h95.146667L644.266667 147.626667 718.506667 128l53.333333 213.333333H938.666667l-64 554.666667h-213.333334M213.333333 469.333333h213.333334a128 128 0 0 1 128 128H85.333333a128 128 0 0 1 128-128m341.333334 298.666667a128 128 0 0 1-128 128H213.333333a128 128 0 0 1-128-128h469.333334M128 640h213.333333l64 64L469.333333 640h42.666667a42.666667 42.666667 0 0 1 42.666667 42.666667 42.666667 42.666667 0 0 1-42.666667 42.666666H128a42.666667 42.666667 0 0 1-42.666667-42.666666 42.666667 42.666667 0 0 1 42.666667-42.666667z" fill="" /></svg>