<?xml version="1.0" encoding="UTF-8" standalone="no"?><!DOCTYPE svg PUBLIC "-//W3C//DTD SVG 1.1//EN" "http://www.w3.org/Graphics/SVG/1.1/DTD/svg11.dtd"><svg width="100%" height="100%" viewBox="0 0 1366 768" version="1.1" xmlns="http://www.w3.org/2000/svg" xmlns:xlink="http://www.w3.org/1999/xlink" xml:space="preserve" xmlns:serif="http://www.serif.com/" style="fill-rule:evenodd;clip-rule:evenodd;stroke-linejoin:round;stroke-miterlimit:2;"><g><path d="M220.5,311.99l-23.63,0.07l-3.33,-21.11c-3.13,-3.11 -7.08,-5.57 -11.84,-7.37c-4.76,-1.8 -10.37,-2.69 -16.83,-2.67c-13.8,0.04 -24.4,5.08 -31.81,15.12c-7.41,10.04 -11.1,23.11 -11.05,39.23l0,5.56c0.06,16.11 3.8,29.21 11.24,39.27c7.43,10.08 17.9,15.09 31.4,15.04c6.24,-0.01 11.96,-0.94 17.14,-2.77c5.19,-1.83 9.19,-4.31 12.01,-7.44l3.21,-21.13l23.63,-0.07l0.09,31.35c-6.37,7.43 -14.49,13.35 -24.39,17.77c-9.89,4.42 -20.98,6.65 -33.25,6.69c-21.27,0.06 -38.71,-7.26 -52.33,-21.95c-13.62,-14.7 -20.46,-33.59 -20.53,-56.68l0,-5.33c-0.08,-23.01 6.62,-41.94 20.07,-56.79c13.46,-14.85 30.9,-22.31 52.31,-22.37c12.26,-0.04 23.34,2.16 33.23,6.6c9.88,4.44 18.07,10.31 24.55,17.62l0.09,31.36l0.02,-0Z" style="fill:#fff;fill-rule:nonzero;"/><path d="M306.74,416.88c-0.85,-1.9 -1.6,-3.86 -2.24,-5.87c-0.64,-2.01 -1.14,-4.04 -1.5,-6.08c-3.66,4.25 -8.12,7.69 -13.37,10.31c-5.25,2.63 -11.27,3.95 -18.05,3.97c-11.22,0.03 -20.15,-3 -26.77,-9.08c-6.62,-6.09 -9.94,-14.39 -9.98,-24.91c-0.03,-10.73 4.25,-19.04 12.85,-24.93c8.6,-5.88 21.23,-8.85 37.89,-8.9l15.78,-0.04l-0.04,-11.23c-0.01,-5.51 -1.62,-9.77 -4.8,-12.8c-3.19,-3.03 -7.89,-4.53 -14.1,-4.51c-3.53,0.01 -6.67,0.43 -9.42,1.25c-2.75,0.82 -4.97,1.8 -6.66,2.93l-1.98,12.29l-23.3,0.07l0.03,-25.42c5.64,-3.83 12.11,-7.06 19.41,-9.69c7.3,-2.63 15.26,-3.97 23.87,-3.99c14.19,-0.04 25.73,3.4 34.61,10.33c8.88,6.94 13.34,16.82 13.38,29.68l0.14,47.34c0,1.77 0.03,3.43 0.07,4.98c0.04,1.55 0.17,3.03 0.39,4.44l9.42,1.25l0.06,18.53l-35.69,0.1l0,-0.02Zm-26.86,-20.57c4.66,-0.01 8.89,-1.03 12.7,-3.05c3.8,-2.03 6.76,-4.56 8.87,-7.61l-0.05,-17.48l-15.78,0.05c-6.57,0.02 -11.54,1.57 -14.92,4.65c-3.38,3.08 -5.06,6.78 -5.05,11.08c0.01,3.88 1.27,6.92 3.78,9.1c2.51,2.18 6,3.26 10.45,3.25" style="fill:#fff;fill-rule:nonzero;"/><path d="M353.21,398.2l14.82,-3.23l-0.21,-71.06l-16.42,-3.13l-0.06,-18.64l45.23,-0.13l1.42,16.72c2.67,-5.93 6.12,-10.57 10.34,-13.9c4.23,-3.33 9.13,-5 14.71,-5.02c1.62,0 3.34,0.11 5.14,0.36c1.8,0.24 3.3,0.54 4.51,0.88l-3.2,28.18l-12.71,-0.28c-4.52,0.01 -8.26,0.91 -11.22,2.68c-2.96,1.78 -5.21,4.29 -6.75,7.54l0.16,55.7l14.84,3.14l0.05,18.53l-60.58,0.18l-0.06,-18.53l-0.01,0.01Z" style="fill:#fff;fill-rule:nonzero;"/><path d="M436.67,274.23l-0.06,-18.64l47.44,-0.14l0.43,139.19l14.94,3.14l0.06,18.54l-60.79,0.17l-0.06,-18.53l14.93,-3.22l-0.37,-117.38l-16.52,-3.13Z" style="fill:#fff;fill-rule:nonzero;"/><path d="M560.65,418.35c-16.52,0.04 -29.74,-5.21 -39.66,-15.77c-9.92,-10.56 -14.9,-24 -14.94,-40.31l0,-4.24c-0.06,-17.02 4.57,-31.05 13.89,-42.09c9.32,-11.04 21.86,-16.55 37.61,-16.52c15.46,-0.05 27.48,4.58 36.05,13.87c8.57,9.29 12.88,21.89 12.93,37.77l0.05,16.84l-68.42,0.2l-0.21,0.63c0.59,7.56 3.13,13.76 7.63,18.62c4.5,4.86 10.6,7.27 18.29,7.26c6.85,-0.03 12.53,-0.73 17.04,-2.12c4.52,-1.39 9.45,-3.58 14.81,-6.56l8.42,19.04c-4.72,3.75 -10.83,6.91 -18.35,9.48c-7.51,2.56 -15.9,3.86 -25.14,3.89m0,-95.1c-5.72,0.02 -10.23,2.22 -13.54,6.6c-3.3,4.39 -5.33,10.15 -6.09,17.28l0.32,0.53l37.92,-0.11l0,-2.75c-0.03,-6.57 -1.58,-11.8 -4.66,-15.71c-3.08,-3.9 -7.73,-5.85 -13.95,-5.83" style="fill:#fff;fill-rule:nonzero;"/><path d="M657.46,270.4l0.08,30.81l20.13,-0.06l0.06,21.71l-20.12,0.06l0.17,58.36c0.01,4.45 0.94,7.62 2.78,9.52c1.84,1.9 4.32,2.85 7.43,2.84c2.12,0 3.97,-0.09 5.56,-0.28c1.59,-0.18 3.37,-0.49 5.34,-0.92l2.71,22.34c-3.45,1.07 -6.88,1.87 -10.26,2.41c-3.39,0.54 -7.06,0.81 -11.02,0.83c-10.66,0.03 -18.88,-2.88 -24.65,-8.72c-5.77,-5.85 -8.68,-15.13 -8.72,-27.83l-0.17,-58.46l-10.76,0.05l-0.06,-21.71l10.76,-0.05l-0.09,-30.81l30.82,-0.09l0.01,0Z" style="fill:#fff;fill-rule:nonzero;"/><path d="M687.83,357.36c-0.05,-17.09 4.69,-31.1 14.23,-42.04c9.53,-10.93 22.74,-16.43 39.61,-16.48c16.95,-0.05 30.22,5.35 39.82,16.19c9.6,10.85 14.42,24.85 14.47,42l0,2.23c0.06,17.22 -4.69,31.27 -14.22,42.14c-9.54,10.86 -22.71,16.32 -39.51,16.37c-17.02,0.05 -30.32,-5.33 -39.92,-16.14c-9.61,-10.82 -14.43,-24.83 -14.48,-42.06l0,-2.22l-0,0.01Zm30.93,2.13c0.03,10.45 1.89,18.84 5.58,25.14c3.69,6.31 9.63,9.45 17.82,9.42c7.98,-0.03 13.81,-3.21 17.5,-9.58c3.68,-6.37 5.51,-14.74 5.49,-25.12l0,-2.22c-0.04,-10.17 -1.94,-18.45 -5.7,-24.87c-3.77,-6.42 -9.67,-9.61 -17.72,-9.59c-8.05,0.03 -13.9,3.25 -17.55,9.69c-3.65,6.44 -5.46,14.74 -5.43,24.91l0,2.22l0.01,-0Z" style="fill:#fff;fill-rule:nonzero;"/><path d="M803.87,396.82l14.82,-3.23l-0.21,-71.06l-16.42,-3.13l-0.06,-18.64l45.23,-0.13l1.42,16.41c3.8,-5.87 8.48,-10.44 14.05,-13.7c5.56,-3.26 11.81,-4.91 18.73,-4.93c11.58,-0.03 20.63,3.58 27.14,10.83c6.52,7.25 9.8,18.65 9.85,34.18l0.14,49.88l14.84,3.14l0.06,18.53l-59.1,0.18l-0.06,-18.53l13.23,-3.22l-0.15,-49.78c-0.02,-7.69 -1.59,-13.15 -4.71,-16.35c-3.12,-3.21 -7.82,-4.8 -14.1,-4.78c-4.09,0.01 -7.76,0.86 -11,2.53c-3.25,1.67 -5.96,4.02 -8.14,7.07l0.18,61.42l12.51,3.15l0.05,18.53l-58.25,0.17l-0.06,-18.53l0.01,-0.01Z" style="fill:#fff;fill-rule:nonzero;"/><path d="M378.1,459.97l0.03,10.36l-9.18,1.79l0.13,44.75c0.02,5.66 1.55,9.88 4.6,12.68c3.05,2.79 7.22,4.19 12.53,4.17c5.38,-0.01 9.59,-1.42 12.64,-4.22c3.06,-2.79 4.57,-7.04 4.56,-12.73l-0.13,-44.75l-9.13,-1.74l-0.03,-10.36l35.51,-0.1l0.03,10.36l-9.18,1.79l0.14,44.75c0.02,9.62 -3.12,17.05 -9.45,22.29c-6.32,5.24 -14.62,7.87 -24.91,7.9c-10.24,0.04 -18.52,-2.56 -24.84,-7.76c-6.31,-5.2 -9.49,-12.61 -9.51,-22.23l-0.13,-44.74l-9.14,-1.74l-0.03,-10.36l9.13,-0.03l17.19,-0.05l9.19,-0.03l-0.02,0Z" style="fill:#fff;fill-rule:nonzero;"/><path d="M434.38,535.23l8.24,-1.79l-0.12,-39.51l-9.13,-1.74l-0.03,-10.36l25.15,-0.08l0.79,9.13c2.11,-3.26 4.71,-5.8 7.81,-7.62c3.1,-1.82 6.57,-2.73 10.41,-2.74c6.44,-0.03 11.47,1.99 15.09,6.02c3.62,4.03 5.45,10.37 5.47,19l0.08,27.73l8.25,1.74l0.03,10.3l-32.86,0.1l-0.03,-10.31l7.36,-1.79l-0.08,-27.67c-0.01,-4.28 -0.88,-7.31 -2.62,-9.09c-1.73,-1.78 -4.34,-2.67 -7.84,-2.66c-2.27,0 -4.32,0.48 -6.12,1.4c-1.8,0.93 -3.31,2.24 -4.52,3.93l0.1,34.15l6.96,1.74l0.03,10.31l-32.38,0.1l-0.03,-10.31l-0.01,0.02Z" style="fill:#fff;fill-rule:nonzero;"/><path d="M511.33,535l8.3,-1.79l-0.11,-39.51l-9.19,-1.74l-0.03,-10.36l26.38,-0.08l0.16,51.64l8.25,1.74l0.03,10.31l-33.74,0.1l-0.03,-10.31l-0.02,-0Zm25.3,-68.73l-17.19,0.05l-0.04,-12.9l17.19,-0.05l0.04,12.9Z" style="fill:#fff;fill-rule:nonzero;"/><path d="M574.99,491.77l-6.01,1.13l8.51,28.48l1.14,5.99l0.35,0l1.22,-6l8.21,-28.46l-6.12,-1.16l-0.03,-10.37l28.91,-0.08l0.03,10.36l-5.54,0.89l-18.62,52.53l-16.43,0.05l-19,-52.41l-5.53,-0.87l-0.04,-10.36l28.92,-0.09l0.03,10.37Z" style="fill:#fff;fill-rule:nonzero;"/><path d="M643.93,546.14c-9.18,0.03 -16.54,-2.89 -22.04,-8.77c-5.51,-5.87 -8.29,-13.35 -8.32,-22.41l0,-2.36c-0.03,-9.46 2.54,-17.26 7.73,-23.4c5.18,-6.14 12.16,-9.2 20.91,-9.19c8.6,-0.03 15.28,2.54 20.04,7.71c4.76,5.17 7.16,12.17 7.19,21l0.03,9.36l-38.04,0.11l-0.11,0.35c0.33,4.2 1.74,7.66 4.24,10.35c2.5,2.71 5.9,4.05 10.17,4.04c3.81,-0.01 6.97,-0.4 9.48,-1.18c2.51,-0.77 5.25,-1.99 8.23,-3.64l4.68,10.58c-2.63,2.09 -6.02,3.84 -10.2,5.27c-4.17,1.43 -8.84,2.15 -13.98,2.16m-1.69,-52.87c-3.18,0.01 -5.69,1.23 -7.53,3.67c-1.84,2.44 -2.97,5.64 -3.39,9.61l0.18,0.29l21.08,-0.06l0,-1.54c-0.02,-3.65 -0.88,-6.56 -2.59,-8.73c-1.71,-2.17 -4.3,-3.26 -7.75,-3.25" style="fill:#fff;fill-rule:nonzero;"/><path d="M676.3,534.49l8.24,-1.79l-0.12,-39.51l-9.13,-1.74l-0.03,-10.36l25.15,-0.08l0.79,9.3c1.49,-3.3 3.4,-5.88 5.75,-7.73c2.35,-1.85 5.08,-2.78 8.18,-2.79c0.9,0 1.85,0.06 2.86,0.19c1,0.14 1.84,0.3 2.51,0.5l-1.78,15.67l-7.07,-0.16c-2.51,0 -4.59,0.51 -6.23,1.5c-1.65,0.98 -2.9,2.38 -3.76,4.19l0.09,30.97l8.25,1.74l0.03,10.31l-33.68,0.1l-0.03,-10.31l-0.02,0Z" style="fill:#fff;fill-rule:nonzero;"/><path d="M775.02,502.69l-11.54,0.03l-1.85,-7.94c-1.18,-0.94 -2.66,-1.72 -4.46,-2.34c-1.79,-0.63 -3.76,-0.93 -5.92,-0.93c-3.02,0.01 -5.41,0.7 -7.17,2.06c-1.76,1.36 -2.64,3.06 -2.63,5.11c0,1.92 0.85,3.52 2.54,4.78c1.69,1.28 5.07,2.4 10.14,3.36c7.9,1.55 13.75,3.84 17.57,6.87c3.82,3.04 5.73,7.22 5.75,12.56c0.02,5.73 -2.43,10.42 -7.35,14.06c-4.91,3.65 -11.4,5.48 -19.44,5.51c-4.91,0.02 -9.42,-0.69 -13.52,-2.11c-4.1,-1.42 -7.75,-3.46 -10.94,-6.12l-0.22,-14.3l12.01,-0.03l2.38,8.3c1.02,0.86 2.42,1.49 4.19,1.9c1.77,0.4 3.62,0.61 5.54,0.6c3.49,-0.01 6.15,-0.65 7.97,-1.9c1.82,-1.27 2.73,-2.97 2.73,-5.13c0,-1.89 -0.93,-3.52 -2.78,-4.88c-1.85,-1.37 -5.25,-2.58 -10.19,-3.62c-7.51,-1.51 -13.18,-3.76 -17.01,-6.75c-3.83,-3 -5.76,-7.08 -5.78,-12.26c-0.02,-5.34 2.17,-9.94 6.55,-13.83c4.39,-3.88 10.64,-5.83 18.77,-5.85c4.95,-0.02 9.63,0.63 14.05,1.96c4.42,1.33 7.89,3.02 10.41,5.09l0.23,15.84l-0.03,-0.04Z" style="fill:#fff;fill-rule:nonzero;"/><path d="M784.65,534.16l8.3,-1.79l-0.11,-39.51l-9.19,-1.74l-0.03,-10.36l26.38,-0.08l0.16,51.64l8.25,1.74l0.03,10.31l-33.74,0.1l-0.03,-10.31l-0.02,-0Zm25.3,-68.73l-17.19,0.05l-0.04,-12.9l17.19,-0.05l0.04,12.9Z" style="fill:#fff;fill-rule:nonzero;"/><path d="M846.57,464.96l0.05,15.6l11.18,-0.03l0.04,12.07l-11.19,0.04l0.1,32.44c0,2.47 0.52,4.24 1.54,5.3c1.03,1.05 2.4,1.58 4.13,1.57c1.18,0 2.21,-0.06 3.09,-0.15c0.88,-0.1 1.87,-0.28 2.98,-0.51l1.5,12.43c-1.92,0.59 -3.82,1.03 -5.71,1.34c-1.88,0.29 -3.92,0.45 -6.12,0.46c-5.93,0.02 -10.5,-1.6 -13.7,-4.85c-3.21,-3.25 -4.82,-8.41 -4.84,-15.47l-0.09,-32.5l-5.93,0.03l-0.03,-12.07l5.93,-0.03l-0.05,-15.6l17.14,-0.05l-0.02,-0.02Z" style="fill:#fff;fill-rule:nonzero;"/><path d="M932.21,490.68l-5.95,0.9l-23.25,62.08c-1.83,4.59 -4.28,8.45 -7.35,11.56c-3.08,3.11 -7.71,4.67 -13.92,4.7c-1.45,0 -2.81,-0.11 -4.09,-0.35c-1.28,-0.23 -2.78,-0.56 -4.51,-0.98l1.96,-12.55c0.55,0.08 1.12,0.16 1.71,0.24c0.59,0.07 1.1,0.11 1.53,0.11c2.86,-0.01 5.06,-0.71 6.59,-2.11c1.52,-1.4 2.7,-3.15 3.52,-5.22l1.93,-4.84l-20.35,-52.4l-5.95,-0.93l-0.03,-10.36l31.21,-0.09l0.03,10.36l-7.12,1.2l8.79,25.41l0.9,4.59l0.36,0.06l9.98,-30.12l-7.19,-1.16l-0.03,-10.36l31.21,-0.09l0.03,10.36l-0.01,-0.01Z" style="fill:#fff;fill-rule:nonzero;"/><path d="M1029.71,485.59c22.7,41.04 59.17,64.29 101.32,82.63c2.51,1.09 5.23,1.15 7.72,0c12.36,-5.73 26.09,-11.44 37.67,-18.5c6.7,-4.09 13.02,-8.42 18.94,-13c-18.15,-12.94 -45.76,-24.24 -87.72,-27.64c-39.98,-3.23 -63.77,-13.1 -77.93,-23.5" style="fill:#fff;fill-rule:nonzero;"/><path d="M1121.19,480.17c-53.13,10.19 -84.96,-4.42 -103.44,-21.28c0.93,2.69 1.93,5.36 3.01,8.01c15.12,16.42 41.92,29.69 89.48,25.88c58.67,-4.69 93.42,4.31 113.97,16.03c5.17,-6.35 9.8,-13.02 13.88,-20.02c-22.49,-12.35 -58.75,-19.78 -116.91,-8.63" style="fill:#fff;fill-rule:nonzero;"/><path d="M1254.56,448.39c3.2,-12.49 5.08,-25.75 5.57,-39.77c0.7,-19.47 0.91,-38.96 1,-58.45l-50.42,54.38l21.79,-95.12l-29.03,15.36l-21.77,-59.21l-21.77,59.21l-29.03,-15.36l21.8,95.12l-51.49,-55.54l-3.35,24.26l-42.23,-12.32l19.49,46.06l-17.89,4.88l60.35,45.06c68.66,-26.49 111.73,-18.79 136.97,-8.55" style="fill:#fff;fill-rule:nonzero;"/><path d="M1241.87,297.24l-19.57,85.41l38.88,-41.93c0.05,-19.05 0.02,-38.1 0.2,-57.15c0.04,-3.46 -0.78,-5.4 -4.42,-6.64c-23.18,-7.95 -46.75,-14.13 -70.82,-17.88l20.83,56.67l34.91,-18.48l-0.01,0Z" style="fill:#fff;fill-rule:nonzero;"/><path d="M1110.42,459.57l-67.51,-50.41l23.48,-6.4l-21.88,-51.73l48.04,14.01l4.17,-30.28l44.41,47.89l-19.57,-85.41l34.91,18.48l21.28,-57.88c-5.85,-0.77 -11.72,-1.4 -17.62,-1.87c-50,-3.96 -98.43,3.89 -145.66,20.31c-4.57,1.6 -6.13,3.63 -6.08,8.48c0.27,21.42 0.26,64.31 0.26,64.31c0,19.32 -0.2,38.64 0.04,57.95c0.16,12.45 1.69,24.57 4.51,36.34c17.11,17.86 47.26,33.48 97.23,16.2" style="fill:#fff;fill-rule:nonzero;"/></g></svg>